<svg viewBox="0 0 24 24" xmlns="http://www.w3.org/2000/svg" fill="#ffffff"><path d="M12 0C5.37 0 0 5.37 0 12c0 5.31 3.435 9.795 8.205 11.385.6.105.825-.255.825-.57 0-.285-.015-1.23-.015-2.235-3.015.555-3.795-.735-4.035-1.41-.135-.345-.72-1.41-1.23-1.695-.42-.225-1.02-.78-.015-.795 1.005-.015 1.71.885 1.95 1.26 1.14 1.905 2.955 1.365 3.69 1.035.105-.825.435-1.38.81-1.695-2.835-.315-5.805-1.41-5.805-6.285 0-1.38.495-2.52 1.305-3.405-.135-.315-.57-1.62.135-3.36 0 0 1.065-.33 3.495 1.305A11.82 11.82 0 0 1 12 5.805c1.02.015 2.04.135 3 .405 2.43-1.65 3.495-1.305 3.495-1.305.705 1.74.27 3.045.135 3.36.81.885 1.305 2.01 1.305 3.405 0 4.89-2.985 5.97-5.82 6.285.465.39.87 1.14.87 2.31 0 1.665-.015 3.015-.015 3.435 0 .315.225.69.825.57C20.565 21.795 24 17.295 24 12c0-6.63-5.37-12-12-12z"/></svg>